<?xml version="1.0" encoding="UTF-8"?><svg id="uuid-e4f0bf6e-d319-47f0-84d9-f1d3e3f17bfb" xmlns="http://www.w3.org/2000/svg" viewBox="0 0 108.438 87.791"><defs><style>.uuid-eec19909-818c-4547-bd4a-33b1d5559d56{fill:#fff;}</style></defs><g id="uuid-2b516cb0-362f-487c-8bc0-9c042a0614a7"><g><g><path class="uuid-eec19909-818c-4547-bd4a-33b1d5559d56" d="m8.469,87.403c-.739.179-1.56.387-2.883.387-2.591,0-5.586-1.308-5.586-4.986,0-3.384,2.369-5.071,5.572-5.071.988,0,1.951.225,2.883.504l-.209,2.103c-.835-.461-1.643-.682-2.535-.682-1.839,0-3.037,1.338-3.037,3.146,0,1.909,1.352,3.065,3.245,3.065.85,0,1.714-.223,2.425-.501l.125,2.034Z"/><path class="uuid-eec19909-818c-4547-bd4a-33b1d5559d56" d="m14.167,77.733c3.205,0,4.876,1.911,4.876,5.029,0,3.093-1.7,5.028-4.876,5.028s-4.875-1.935-4.875-5.028c0-3.118,1.672-5.029,4.875-5.029Zm0,8.137c1.573,0,2.201-1.505,2.201-3.108,0-1.683-.628-3.104-2.201-3.104s-2.202,1.421-2.202,3.104c0,1.603.629,3.108,2.202,3.108Z"/><path class="uuid-eec19909-818c-4547-bd4a-33b1d5559d56" d="m20.531,77.901h3.301l3.288,6.605h.027l-.042-6.605h2.368v9.723h-3.218l-3.398-6.641h-.027l.082,6.641h-2.382v-9.723Z"/><path class="uuid-eec19909-818c-4547-bd4a-33b1d5559d56" d="m31.353,85.231c.669.359,1.602.639,2.675.639.822,0,1.602-.168,1.602-.95,0-1.808-4.597-.667-4.597-4.206,0-2.34,2.285-2.981,4.236-2.981.934,0,1.851.141,2.507.366l-.166,2.005c-.669-.309-1.421-.446-2.16-.446-.655,0-1.741.055-1.741.903,0,1.575,4.596.519,4.596,4.029,0,2.521-2.116,3.201-4.276,3.201-.907,0-2.034-.139-2.897-.415l.222-2.144Z"/><path class="uuid-eec19909-818c-4547-bd4a-33b1d5559d56" d="m41.504,79.823h-2.393v-1.922h7.382v1.922h-2.395v7.801h-2.594v-7.801Z"/><path class="uuid-eec19909-818c-4547-bd4a-33b1d5559d56" d="m47.51,77.901h4.624c1.727,0,3.134.782,3.134,2.453,0,1.296-.612,2.16-1.864,2.45v.027c.834.225.889.964,1.378,2.145l.945,2.647h-2.704l-.555-1.754c-.528-1.673-.864-2.088-1.824-2.088h-.545v3.842h-2.59v-9.723Zm2.59,4.039h.682c.836,0,1.898-.027,1.898-1.126,0-.909-.907-1.075-1.898-1.075h-.682v2.201Z"/><path class="uuid-eec19909-818c-4547-bd4a-33b1d5559d56" d="m65.253,83.935c0,2.66-1.724,3.855-4.261,3.855s-4.262-1.196-4.262-3.855v-6.034h2.59v5.6c0,1.282.35,2.369,1.671,2.369s1.674-1.087,1.674-2.369v-5.6h2.587v6.034Z"/><path class="uuid-eec19909-818c-4547-bd4a-33b1d5559d56" d="m75.035,87.403c-.738.179-1.56.387-2.883.387-2.594,0-5.587-1.308-5.587-4.986,0-3.384,2.368-5.071,5.572-5.071.987,0,1.954.225,2.885.504l-.208,2.103c-.837-.461-1.649-.682-2.539-.682-1.836,0-3.033,1.338-3.033,3.146,0,1.909,1.351,3.065,3.241,3.065.856,0,1.717-.223,2.428-.501l.124,2.034Z"/><path class="uuid-eec19909-818c-4547-bd4a-33b1d5559d56" d="m77.89,79.823h-2.392v-1.922h7.38v1.922h-2.393v7.801h-2.594v-7.801Z"/><path class="uuid-eec19909-818c-4547-bd4a-33b1d5559d56" d="m84.091,77.901h2.587v9.723h-2.587v-9.723Z"/><path class="uuid-eec19909-818c-4547-bd4a-33b1d5559d56" d="m93.127,77.733c3.209,0,4.876,1.911,4.876,5.029,0,3.093-1.696,5.028-4.876,5.028s-4.876-1.935-4.876-5.028c0-3.118,1.676-5.029,4.876-5.029Zm0,8.137c1.573,0,2.202-1.505,2.202-3.108,0-1.683-.629-3.104-2.202-3.104s-2.199,1.421-2.199,3.104c0,1.603.627,3.108,2.199,3.108Z"/><path class="uuid-eec19909-818c-4547-bd4a-33b1d5559d56" d="m99.493,77.901h3.303l3.282,6.605h.027l-.042-6.605h2.373v9.723h-3.22l-3.401-6.641h-.027l.083,6.641h-2.38v-9.723Z"/></g><g><path class="uuid-eec19909-818c-4547-bd4a-33b1d5559d56" d="m36.724,20.26l-11.743-.004-4.923,24.359,7.981.003,1.425-7.25h4.024c8.342.005,10.677-2.546,11.738-7.79,1.011-5.007-1.501-9.316-8.501-9.318Zm1.048,8.476c-.426,2.098-1.927,2.844-3.785,2.843h-3.319s1.095-5.413,1.095-5.413h2.267c1.691.001,4.205.302,3.741,2.57Z"/><path class="uuid-eec19909-818c-4547-bd4a-33b1d5559d56" d="m62.273,35.192c-.5,1.454-2.636,4.181-5.353,4.18-4.057-.001-4.418-3.191-3.875-6.636.746-4.68,3.65-7.266,6.455-7.265,2.505,0,3.816,1.548,3.815,3.447l6.699.002c.296-4.034-2.5-9.401-9.943-9.403-7.154-.003-14.841,4.652-14.845,15.083-.003,6.98,4.945,10.452,11.304,10.454,6.432.002,11.475-3.815,12.983-9.859l-7.24-.003Z"/><path class="uuid-eec19909-818c-4547-bd4a-33b1d5559d56" d="m54.229,0C26.893-.01,4.647,15.143,4.64,33.777c-.007,18.637,22.228,33.806,49.564,33.816,27.338.01,49.582-15.143,49.589-33.78C103.8,15.179,81.566.01,54.229,0Zm-.023,63.336c-24.892-.009-45.065-13.241-45.059-29.557.006-16.311,20.188-29.526,45.081-29.517,24.892.009,45.07,13.238,45.064,29.55-.006,16.316-20.194,29.534-45.086,29.524Z"/><polygon class="uuid-eec19909-818c-4547-bd4a-33b1d5559d56" points="80.534 20.276 73.095 20.273 68.269 44.633 86.338 44.639 87.683 38.189 77.05 38.185 80.534 20.276"/></g></g></g></svg>